<?xml version="1.0" encoding="utf-8"?>
<!-- Generator: Adobe Illustrator 23.0.3, SVG Export Plug-In . SVG Version: 6.00 Build 0)  -->
<svg version="1.1" id="Layer_1" xmlns="http://www.w3.org/2000/svg" xmlns:xlink="http://www.w3.org/1999/xlink" x="0px" y="0px"
	 viewBox="0 0 110.4 24.8" style="enable-background:new 0 0 110.4 24.8;" xml:space="preserve">
<style type="text/css">
	.st0{fill:#FFFFFF;}
	.st1{clip-path:url(#SVGID_2_);}
	.st2{fill:#B11917;}
	.st3{fill:#16602C;}
</style>
<g>
	<g>
		<g>
			<g>
				<path class="st0" d="M45.8,5.4c-0.4-0.4-0.8-0.7-1.3-1c-0.8-0.4-1.7-0.6-2.6-0.6c-1.3,0-2.4,0.2-3.3,0.7C37.7,5,37,5.6,36.5,6.4
					c-0.5,0.8-0.9,1.6-1.1,2.6c-0.2,0.9-0.3,1.8-0.3,2.7c0,1,0.1,2,0.4,2.9c0.3,0.9,0.7,1.7,1.3,2.4c0.6,0.7,1.3,1.2,2.1,1.6
					c0.8,0.4,1.8,0.6,2.9,0.6c1,0,1.9-0.2,2.8-0.7c0.5-0.3,1-0.6,1.4-1.1c0,0.7-0.1,1.3-0.2,1.9c-0.1,0.6-0.4,1.1-0.7,1.6
					c-0.3,0.4-0.7,0.8-1.2,1c-0.7,0.4-1.8,0.5-2.9,0.2c-0.4-0.1-0.8-0.2-1.1-0.4c-0.3-0.2-0.6-0.4-0.8-0.6c-0.2-0.2-0.3-0.5-0.3-0.9
					l0-0.3h-3l0,0.4c0,0.8,0.3,1.5,0.7,2.1c0.4,0.6,0.9,1,1.5,1.4c0.6,0.4,1.2,0.6,2,0.8c0.7,0.1,1.4,0.2,2.1,0.2
					c2.4,0,4.1-0.6,5.3-1.9c1.1-1.2,1.7-3.1,1.7-5.5V4.1h-2.9V5.4z M41.8,16.4c-0.7,0-1.3-0.1-1.7-0.4c-0.5-0.3-0.8-0.7-1.1-1.1
					c-0.3-0.5-0.5-1-0.6-1.6c-0.1-0.6-0.2-1.2-0.2-1.9c0-0.6,0.1-1.3,0.2-1.9c0.1-0.6,0.4-1.1,0.7-1.5c0.3-0.4,0.7-0.8,1.2-1
					c0.5-0.3,1.1-0.4,1.8-0.4c0.7,0,1.2,0.1,1.7,0.4c0.5,0.3,0.8,0.6,1.1,1.1c0.3,0.5,0.5,1,0.7,1.5c0.1,0.6,0.2,1.2,0.2,1.8
					c0,0.6-0.1,1.3-0.2,1.9c-0.2,0.6-0.4,1.2-0.7,1.7c-0.3,0.5-0.7,0.9-1.2,1.1C43.1,16.3,42.5,16.4,41.8,16.4z"/>
				<path class="st0" d="M59.6,3.8l-0.6,0c-1.2,0-2.3,0.3-3.1,0.8c-0.6,0.4-1.1,0.9-1.6,1.6V4.1h-2.9V19h3v-6.7
					c0-0.9,0.1-1.7,0.3-2.4c0.2-0.7,0.4-1.2,0.8-1.7c0.4-0.5,0.9-0.8,1.5-1c0.6-0.2,1.4-0.4,2.3-0.4h0.3L59.6,3.8L59.6,3.8z"/>
				<path class="st0" d="M72.1,6c-0.6-0.7-1.4-1.3-2.3-1.7c-0.9-0.4-1.9-0.6-3.1-0.6c-1.2,0-2.2,0.2-3.1,0.6c-0.9,0.4-1.7,1-2.3,1.7
					c-0.6,0.7-1.1,1.5-1.4,2.5c-0.3,0.9-0.5,2-0.5,3s0.2,2.1,0.5,3c0.3,0.9,0.8,1.8,1.4,2.5s1.4,1.3,2.3,1.7c0.9,0.4,2,0.6,3.1,0.6
					c1.2,0,2.2-0.2,3.1-0.6c0.9-0.4,1.7-1,2.3-1.7c0.6-0.7,1.1-1.5,1.4-2.5c0.3-0.9,0.5-1.9,0.5-3s-0.2-2.1-0.5-3
					C73.2,7.6,72.7,6.7,72.1,6z M70.7,11.6c0,0.8-0.1,1.6-0.3,2.2c-0.2,0.6-0.5,1.1-0.9,1.6c-0.4,0.4-0.8,0.7-1.3,0.9
					c-1,0.4-2.2,0.4-3.2,0c-0.5-0.2-0.9-0.5-1.3-0.9c-0.4-0.4-0.7-0.9-0.9-1.6c-0.2-0.6-0.3-1.4-0.3-2.2c0-0.8,0.1-1.6,0.3-2.2
					c0.2-0.6,0.5-1.1,0.9-1.6c0.4-0.4,0.8-0.7,1.3-1s1-0.3,1.6-0.3s1.1,0.1,1.6,0.3s0.9,0.5,1.3,1c0.4,0.4,0.7,1,0.9,1.6
					C70.6,10,70.7,10.7,70.7,11.6z"/>
				<path class="st0" d="M85.4,12.5c0,0.6-0.1,1.2-0.2,1.7c-0.2,0.5-0.4,0.9-0.7,1.3c-0.3,0.4-0.7,0.6-1.2,0.8
					c-0.5,0.2-1.1,0.3-1.7,0.3c-0.8,0-1.4-0.2-1.9-0.7c-0.4-0.4-0.7-1.1-0.7-1.8v-10h-3.1v9.7c0,0.8,0.1,1.5,0.2,2.2
					c0.2,0.7,0.5,1.3,0.9,1.8s1,0.9,1.7,1.2c0.7,0.3,1.5,0.4,2.5,0.4c1.1,0,2.1-0.2,2.9-0.7c0.5-0.3,1-0.7,1.4-1.2V19h2.9V4.1h-3
					V12.5z"/>
				<path class="st0" d="M103.8,6.1c-0.6-0.7-1.3-1.3-2.2-1.7s-1.9-0.6-3-0.6c-1,0-2,0.2-2.9,0.6c-0.5,0.2-1,0.6-1.4,1V4.1h-3v20.4
					h3v-6.7c0.1,0.1,0.3,0.3,0.4,0.4c0.4,0.3,0.8,0.5,1.3,0.7c0.4,0.2,0.9,0.3,1.3,0.4c0.4,0.1,0.9,0.1,1.2,0.1c1.1,0,2.1-0.2,3-0.6
					c0.9-0.4,1.6-1,2.2-1.7c0.6-0.7,1-1.5,1.3-2.5c0.3-0.9,0.4-1.9,0.4-3s-0.1-2-0.4-3C104.8,7.7,104.4,6.8,103.8,6.1z M98.3,6.5
					c0.7,0,1.3,0.1,1.8,0.4c0.5,0.3,0.9,0.6,1.2,1.1c0.3,0.5,0.6,1,0.7,1.6c0.2,0.6,0.2,1.2,0.2,1.9c0,0.7-0.1,1.3-0.2,2
					c-0.1,0.6-0.4,1.2-0.7,1.6c-0.3,0.5-0.7,0.8-1.2,1.1c-0.5,0.3-1.1,0.4-1.8,0.4s-1.4-0.1-1.9-0.4c-0.5-0.3-0.9-0.6-1.3-1.1
					c-0.3-0.5-0.6-1-0.7-1.6c-0.2-0.6-0.2-1.3-0.2-1.9c0-0.6,0.1-1.3,0.2-1.9c0.1-0.6,0.4-1.1,0.7-1.6c0.3-0.5,0.7-0.8,1.2-1.1
					C96.9,6.7,97.6,6.5,98.3,6.5z"/>
				<path class="st0" d="M10.4,15.4c-0.8,0.6-1.7,0.8-2.8,0.8c-0.7,0-1.3-0.1-1.8-0.4c-0.6-0.3-1.2-0.7-1.8-1.3
					c-1-1.1-1.6-2.8-1.7-5.2h3.4h6.7c0-1.8-0.6-3.2-1.7-4.2c-1.1-1-2.4-1.5-3.9-1.5c-0.4,0-0.7,0-1.1,0.1C4.2,4.1,2.9,4.8,1.9,6
					C0.6,7.5,0,9.2,0,11.2c0,1.9,0.6,3.5,1.6,5c1,1.3,2.4,2,4.1,2.1c0.2,0,0.3,0,0.5,0c1.7,0,3.2-0.5,4.4-1.6c1.2-1.1,2-2.3,2.4-3.6
					L12.5,13C11.8,14,11.2,14.8,10.4,15.4z M3.1,6.4c0.6-1,1.5-1.5,2.6-1.5c0.1,0,0.1,0,0.1,0c1.2,0,2.1,0.5,2.6,1.3
					C8.8,6.7,9,7.4,9.1,8.5H5.8H2.4C2.5,7.7,2.8,6.9,3.1,6.4z"/>
				<path class="st0" d="M21.6,16.4c-0.3,0.2-0.6,0.2-1,0.2c-0.8,0-1.3-0.3-1.5-1c-0.1-0.4-0.2-1-0.2-1.8l0-8.8h3.2V4H19V0.2
					c0-0.1,0-0.2-0.1-0.2c0,0-0.1,0-0.2,0c-1.2,1.5-2,2.5-2.3,2.8c-0.3,0.4-0.9,0.8-1.6,1.4c-0.3,0.2-0.4,0.3-0.5,0.4
					s-0.1,0.1-0.1,0.2c0,0.1,0,0.1,0,0.1s0.1,0.1,0.1,0.1h1.8v9.2c0,1,0.1,1.8,0.4,2.4c0.4,1,1.3,1.6,2.5,1.6c0.5,0,1.1-0.2,1.8-0.4
					c0.6-0.3,1.2-0.8,1.8-1.5l0.4-0.5l-0.4-0.3C22.2,16,21.9,16.2,21.6,16.4z"/>
				<path class="st0" d="M29.9,14.9v-11c0-0.1,0-0.1,0-0.2c-0.1,0-0.3,0-0.6,0.2c-0.7,0.3-2,0.7-3.9,1.3l-0.7,0.2v0.5
					c0.5-0.2,0.9-0.2,1-0.2c0.1,0,0.2,0,0.3,0c0.5,0,0.9,0.2,1,0.6c0.1,0.3,0.1,0.7,0.1,1.4v7.3c0,1.2-0.2,1.9-0.4,2.2
					c-0.3,0.3-1,0.5-2.2,0.6V18h7.7v-0.4c-1-0.1-1.7-0.3-2-0.6C30,16.7,29.9,16,29.9,14.9z"/>
				<path class="st0" d="M107.4,5.2h0.6l0,0.1l0.5,1.1h0.6l-0.6-1.3c0.2,0,0.4-0.2,0.5-0.3s0.2-0.3,0.2-0.5c0,0,0,0,0-0.1h-0.6
					c0,0,0,0.1,0,0.1c0,0.2-0.1,0.3-0.2,0.4c-0.1,0-0.2,0.1-0.4,0.1c0,0-0.1,0-0.1,0h-0.5V4.3h-0.5v2.2h0.5L107.4,5.2L107.4,5.2z"/>
				<path class="st0" d="M107.9,7.7c0,0,0.1,0,0.1,0c0.3,0,0.6-0.1,0.9-0.2c0.3-0.2,0.6-0.3,0.8-0.5c0.2-0.2,0.3-0.3,0.4-0.5
					c0.1-0.1,0.2-0.3,0.3-0.6c0.1-0.3,0.2-0.6,0.2-0.9c0-0.3,0-0.6-0.1-0.8h-0.3c0.1,0.3,0.1,0.5,0.1,0.8c0,0.3,0,0.6-0.2,0.9
					c-0.1,0.3-0.3,0.5-0.5,0.7c-0.2,0.2-0.4,0.4-0.7,0.5c-0.2,0.1-0.4,0.2-0.7,0.2c0,0-0.1,0-0.1,0c-0.3,0-0.6-0.1-0.8-0.2
					c-0.3-0.1-0.5-0.3-0.7-0.5c-0.2-0.3-0.4-0.5-0.5-0.8c-0.1-0.3-0.2-0.6-0.2-0.9c0-0.3,0-0.5,0.1-0.8h-0.3
					c-0.1,0.2-0.1,0.5-0.1,0.8c0,0.3,0.1,0.7,0.2,1c0.1,0.3,0.3,0.6,0.6,0.8c0.2,0.3,0.5,0.4,0.8,0.6C107.2,7.7,107.6,7.7,107.9,7.7
					z"/>
			</g>
		</g>
		<g>
			<g>
				<defs>
					<path id="SVGID_1_" d="M35.4,5.8c0,1.3-1.1,2.4-2.4,2.4s-2.4-1.1-2.4-2.4c0-1.3,1.1-2.4,2.4-2.4C34.3,3.4,35.4,4.4,35.4,5.8z"
						/>
				</defs>
				<clipPath id="SVGID_2_">
					<use xlink:href="#SVGID_1_"  style="overflow:visible;"/>
				</clipPath>
				<g class="st1">
					<rect x="32.2" y="3.1" class="st0" width="1.7" height="5.3"/>
					<rect x="33.9" y="3.1" class="st2" width="1.7" height="5.3"/>
					<rect x="30.5" y="3.1" class="st3" width="1.7" height="5.3"/>
				</g>
			</g>
		</g>
	</g>
</g>
</svg>
